<svg width="30" height="30" viewBox="0 0 30 30" fill="none" xmlns="http://www.w3.org/2000/svg">
<rect width="30" height="30" rx="6" fill="#017C9B"/>
<path d="M20.1072 6.73498L17.3921 6.73498L15.6187 7.5L15.0553 8.27496L14.569 9.35683L14.3518 10.1133L14.3518 11.101L15.7886 10.1133L17.5866 9.50299L20.6316 9.14065L23.7778 10.1894L25.4518 11.9797L25.7885 13.9601L25.4518 16.2169L24.2886 14.6133L22.2886 13.6133L20.2886 13.6133L18.8921 15L19.2886 15.6133L22.4386 16.2169L23.7886 17.1133L24.3921 18L24.7886 19.1133L24.8921 20.5L23.8824 24.9203L20.7886 25.1133L19.2886 25.1133L17.5866 25.0884L16.2886 24.1133L15.3921 23L14.8921 21L15.3921 18.2489L15.0553 17.8148L13.8753 18.2489L12.8669 19.8447L12.4457 21.1081L12.4457 22.2039L12.9222 23.9672L13.9157 25.0884L10.2451 23.5149L8.86862 22.2039L8.39209 21.1081L8.38277 19.7469L8.86862 17.7724L9.58652 16.5L10.7657 15.1259L9.58652 14.7189L8.22588 15L7.03767 16.2169L6.05014 17.7472L5.7743 19.2019L6.05014 20.8935L4.47708 17.7472L4.47708 15.1259L5.5222 11.9791L7.61968 10.406L9.58652 10.9299L11.3921 12.5L12.7661 12.5031L12.7661 11.101L11.2938 9.35683L10.5396 7.78412L11.2938 5.68675L12.8631 4.63833L14.8636 4.1132L16.5339 4.63806L18.0098 5.16187L20.1072 6.73498Z" fill="white"/>
</svg>
